PathFileType	4	(X/Y/Z)	7_coords_data.trc
DataRate	CameraRate	NumFrames	NumMarkers	Units	OrigDataRate	OrigDataStartFrame	OrigNumFrames
30.0	30.0	8	21	m	30.0	1	49
Frame#	Time	THUMB_TIP	THUMB_IP	THUMB_MCP	THUMB_CMC	INDEX_TIP	INDEX_DIP	INDEX_PIP	INDEX_MCP	MIDDLE_TIP	MIDDLE_DIP	MIDDLE_PIP	MIDDLE_MCP	RING_TIP	RING_DIP	RING_PIP	RING_MCP	PINKY_TIP	PINKY_DIP	PINKY_PIP	PINKY_MCP	WRIST
X1	Y1	Z1	X2	Y2	Z2	X3	Y3	Z3	X4	Y4	Z4	X5	Y5	Z5	X6	Y6	Z6	X7	Y7	Z7	X8	Y8	Z8	X9	Y9	Z9	X10	Y10	Z10	X11	Y11	Z11	X12	Y12	Z12	X13	Y13	Z13	X14	Y14	Z14	X15	Y15	Z15	X16	Y16	Z16	X17	Y17	Z17	X18	Y18	Z18	X19	Y19	Z19	X20	Y20	Z20	X21	Y21	Z21
0	-2.749317978547796e-18	0.5015324041634478	-0.008780508749239968	-0.16394252780336388	0.49573170267810696	-0.01637293461300182	-0.1430449936956934	0.47804233947750163	-0.028304472797094027	-0.12038346625117591	0.4755998296569379	-0.031344362781937085	-0.0759460584210998	0.5066010471427445	-0.014843118362092622	-0.11029410043051369	0.5235784272285293	-0.01103919304530998	-0.11532388348817452	0.5320991100277331	0.010071538764414356	-0.1259890042138504	0.4913648581509493	0.020142025776103245	-0.1187128713545531	0.508781803728453	-0.015994046776740767	-0.0934505894085802	0.5268078943309211	-0.014536624212423854	-0.09441804848297686	0.541591884467936	0.009655248106368974	-0.10117056648294376	0.5029361009093012	0.0316302272931247	-0.09681412203711104	0.5063400786417634	-0.006578408316199713	-0.07630969836927837	0.5242539814630027	-0.004605698926028912	-0.07586192233917399	0.5412914138083722	0.013447730647856315	-0.07785680546801199	0.5092089908916024	0.03782914890180478	-0.07454237976880707	0.5342797597707756	4.547877092209163e-05	-0.06499642442691356	0.5255148216127815	-0.011522350341600762	-0.055921117891594485	0.5391142089504924	0.004472954459782019	-0.055783613892502304	0.5139311025083383	0.02978422876589981	-0.050681262089305124	0.4622830810018609	-0.023011742144276925	-0.051989820119430985
1	0.03333333333333339	0.503230725969685	-0.007618468397667666	-0.16388652738471238	0.49663750862016387	-0.014930426107639061	-0.14312442827528787	0.47913060313106204	-0.02708166448968241	-0.12043796389719619	0.4755330519478451	-0.030884131849282626	-0.07613797667977917	0.5074645422297572	-0.015545881113692928	-0.11015154557757462	0.5243240999560193	-0.011432846419228038	-0.11533211107537228	0.5325575591793882	0.009980185347408854	-0.1256132614379592	0.4918603559337653	0.020257577054632825	-0.11841958632152894	0.5085139077430365	-0.016405669887252228	-0.09348463102245419	0.5264360257659599	-0.014059549030749352	-0.09462190957192462	0.541387664252287	0.010025485309326787	-0.10138720168768256	0.5026402113741614	0.03180523891067788	-0.09686778253010486	0.5067054188026893	-0.007305047206408122	-0.07651081232142543	0.5245950197643886	-0.005098437421479418	-0.07620577021248875	0.5414554815183327	0.013113653806514636	-0.07826113916890876	0.509348210765133	0.03748996479868549	-0.07515639099978022	0.5340382384094658	0.00012348272395401594	-0.06585881596780052	0.5254916022888169	-0.011537873228948281	-0.056695422035368814	0.5388957030054867	0.004618128490627593	-0.05634086398026772	0.5137195072596236	0.030005059291892677	-0.05159256288853298	0.4622830810018608	-0.023011742144276925	-0.051989820119430985
2	0.06666666666666676	0.5045876760357622	-0.007024512666861771	-0.16379788951147972	0.49734320062155657	-0.01406452413319148	-0.14315919249526965	0.4799465950573728	-0.02631877419690387	-0.12044330663932706	0.4754743953868218	-0.030585083079970987	-0.07626539316866843	0.5080800946957896	-0.016119494292435865	-0.11006534701658782	0.5248549923397029	-0.011812933979624796	-0.11536217128291532	0.5328949128007755	0.009805153096481889	-0.1253635623436375	0.4922373295592807	0.020282303866970497	-0.11823430356776293	0.5083247082791296	-0.016785989654324984	-0.09350834248974849	0.5261379375944503	-0.013774148899798555	-0.09478022166214373	0.541240030436188	0.010207235618320376	-0.1015794523828687	0.5024477436056763	0.031882864109555875	-0.09694549802732533	0.5069640324917029	-0.007901955878029998	-0.07665992497854646	0.5248334911737188	-0.005525737464404656	-0.076470102792084	0.541585184717678	0.01277962677872968	-0.07858537637615226	0.5094869442684353	0.03718910315374668	-0.07565258638024619	0.5334301509109499	0.00028057553398774804	-0.06666624084636508	0.5254567572041203	-0.01161128896075525	-0.05728495353413732	0.5387311083698418	0.004647487664310335	-0.056779184035913755	0.5135952658363795	0.030125804731128913	-0.05231507935796842	0.4622830810018609	-0.023011742144276925	-0.051989820119430985
3	0.10000000000000014	0.5056654522206823	-0.006904819225341585	-0.1637177111177318	0.4978919208828143	-0.013685659284740748	-0.14318499530544737	0.4805304751796352	-0.025927350595172927	-0.12043546350904222	0.4754234964556875	-0.030407451450093825	-0.07634762545087836	0.5084822774881382	-0.01658370336976045	-0.11001825453295278	0.525202098469157	-0.01217479299066182	-0.11540426378208718	0.5331323215665472	0.009568074574004104	-0.12522104047767363	0.49251572789995157	0.02023451098840101	-0.1181389823629524	0.5081848121771296	-0.017125658887436446	-0.09352556953508329	0.5259054254978306	-0.013648717370005392	-0.09490061179718323	0.5411422694271515	0.010232894337826703	-0.10175019275588859	0.5023431082483707	0.031880203360090564	-0.0970420057462621	0.5071315896252544	-0.00838389495735603	-0.07677189208214463	0.5249867223105456	-0.005897121035863373	-0.0766709353882844	0.5416862332708847	0.012448969582549263	-0.07884516437955891	0.5096250012805302	0.03692302097270839	-0.07604890870231318	0.5299897658156772	0.001124379162945277	-0.0680518949994271	0.5254139171290181	-0.011729609251969197	-0.05771571627486727	0.5386166109321064	0.004584208237206955	-0.05711550441914881	0.5135471711144364	0.03016584248157883	-0.052874439975473586	0.4622830810018609	-0.023011742144276925	-0.051989820119430985
4	0.13333333333333353	0.5065132133815728	-0.007172818717036122	-0.16366333515654985	0.4983154639617893	-0.013710300157245281	-0.14321686257888117	0.4809186285807183	-0.02583443159191645	-0.1204314383853593	0.4753795608769339	-0.03032317760956016	-0.07639668065737826	0.5087053351059748	-0.016953188080959358	-0.10999940504547606	0.5253953648654229	-0.01251419352696126	-0.11545268240668832	0.5332876305693823	0.009287904732586783	-0.1251681590568131	0.4927121828916562	0.020130041615049943	-0.11811711604360997	0.5080756444269044	-0.017422027865672707	-0.09353855677432643	0.525730563875568	-0.013653919407374038	-0.09498947989692608	0.5410874041047409	0.010132655365288623	-0.10190148892181894	0.5023116383807584	0.03181281487084642	-0.09715189974670024	0.5072231760574885	-0.008763774335097785	-0.07685725096275187	0.5250703338289712	-0.006218655669892881	-0.07682077549383182	0.5417637752313472	0.012126059939896017	-0.07905245699920171	0.5097615796585904	0.0366888531773516	-0.07635996727832384	0.5123156520025651	-0.02073948393899394	-0.05136267799732508	0.5253664103559147	-0.01188125089519676	-0.05801169399552031	0.5385471514744459	0.004448531998986649	-0.057364953556787945	0.5135635440642315	0.030141431258373763	-0.05329337653807931	0.4622830810018609	-0.023011742144276925	-0.051989820119430985
5	0.1666666666666669	0.5071686710220218	-0.007744710776541264	-0.1636373429705203	0.4986358815977435	-0.014056937116069701	-0.14325727174200176	0.48114424659412225	-0.025977110876719944	-0.12043683873962424	0.4753417721672296	-0.03031117307049458	-0.07642051000328187	0.5087828818911031	-0.017239185462004758	-0.11000208946033907	0.5254639038054925	-0.012826907050015768	-0.1155043896254298	0.5333764202023581	0.00898190108865915	-0.1251882837202557	0.49284107382016396	0.019983274393004846	-0.11815325898014489	0.5079869534769025	-0.017675414483109053	-0.09354882024808664	0.5256058251671786	-0.013762041924728408	-0.0950524410715996	0.5410684307167863	0.009935282462899098	-0.10203486160353514	0.502339342367734	0.03169530701302814	-0.09726967868688996	0.5072535148009748	-0.009053454115983572	-0.07692338122625175	0.5250986794181499	-0.00649414544225746	-0.07692961809360244	0.5418224966145665	0.011816068840630245	-0.07921653092438175	0.5098953723742216	0.03648432196070184	-0.07659797029959914	0.5142037671220501	-0.0223712056543397	-0.05025333048039504	0.5253173747271859	-0.012055551326119351	-0.05819530767626613	0.5385169121669896	0.004258751932210814	-0.05754128965628569	0.5136324074457748	0.030066721838373445	-0.05359242081794169	0.4622830810018609	-0.023011742144276925	-0.051989820119430985
6	0.20000000000000023	0.507661425878379	-0.008537577239043803	-0.16363403884413974	0.49886861946689187	-0.0146445323517862	-0.14330200366167317	0.48123827967303856	-0.026298473513913567	-0.12045081607452685	0.4753094559622033	-0.030354375317593107	-0.07642481568879167	0.508747852174755	-0.01745086586816469	-0.1100221302754571	0.5254361643086817	-0.01310862400865831	-0.11555793859531321	0.5334127810240831	0.008666357615885967	-0.125265337527382	0.4929153215995207	0.01980785661584128	-0.11823263717901533	0.5079143012880463	-0.01788727703350046	-0.09355761775564553	0.5255241531067906	-0.01394638828781991	-0.0950946651901905	0.5410784785400338	0.009668727946447575	-0.1021514913577255	0.5024126952857678	0.03154179840204696	-0.0973897778868722	0.5072370424851228	-0.00926429066733192	-0.07697542063568874	0.5250851888564085	-0.0067260325750700956	-0.07700570208587898	0.5418666793926976	0.011524731152340095	-0.07934475696909526	0.5100246325343198	0.03630765096740851	-0.07677342048610292	0.5144497808404389	-0.022738695618178095	-0.050178896156270136	0.5252698176904663	-0.01224244088322135	-0.05828786890890314	0.538519632639539	0.004031980424862303	-0.05765728671574932	0.5137415668485438	0.029954537156098304	-0.05379051038746663	0.462283081001861	-0.023011742144276925	-0.051989820119430985
7	0.23333333333333361	0.5080168524404909	-0.00946907237063388	-0.163644129036431	0.49902611187527823	-0.015392441559962333	-0.14334436840887793	0.4812304453227101	-0.026744572304044367	-0.1204694174904809	0.47528215175752575	-0.030437818909554215	-0.07641413706720723	0.5086325425104844	-0.017596427602764475	-0.11005669398852042	0.5253400698646015	-0.013355002358168666	-0.11561266749511101	0.5334098959871951	0.008357158622278482	-0.12538353260063	0.49294698586323893	0.0196172414586524	-0.11834083902369169	0.5078569126996327	-0.018059488668511148	-0.09356617671397804	0.525478998326911	-0.01418080284780543	-0.09512113473563832	0.5411109112623682	0.009360612506959076	-0.10225237663819275	0.5025184685584863	0.03136626689375732	-0.09750659301940301	0.5071879004824131	-0.00940750553418479	-0.07701699350479574	0.525042626975165	-0.006916077609332105	-0.07705609292028726	0.541900234868447	0.011258156195235403	-0.07944319592042604	0.5101472158511233	0.036157485480827534	-0.0768956444659612	0.5142709446598259	-0.022841274913052434	-0.05027107161856148	0.5252266419559793	-0.012432210741106675	-0.05830998198125181	0.538548818076088	0.0037847406798772187	-0.05772506400900668	0.5138786458021715	0.029816970303013668	-0.053905499659034906	0.462283081001861	-0.023011742144276925	-0.051989820119430985
